<?xml version="1.0" encoding="utf-8"?>
<!-- Generator: Adobe Illustrator 24.2.0, SVG Export Plug-In . SVG Version: 6.00 Build 0)  -->
<svg version="1.1" id="Слой_1" xmlns="http://www.w3.org/2000/svg" xmlns:xlink="http://www.w3.org/1999/xlink" x="0px" y="0px"
	 viewBox="0 0 32 32" style="enable-background:new 0 0 32 32;" xml:space="preserve">
<style type="text/css">
	.st0{fill:#0079C2;}
	.st1{fill:#FFFFFF;}
</style>
<circle class="st0" cx="16" cy="16" r="16"/>
<g>
	<path class="st1" d="M20.7,7.8c-0.5-2.1-1.7-3.8-1.8-4.1c-0.3,0.4-1.2,1.9-1.7,3.6c-0.5,1.9-0.6,3.5-0.4,5.2
		c0.2,1.6,0.9,3.3,0.9,3.3c0.4,0.9,0.9,1.8,1.3,2.3c0.5-0.7,1.7-2.7,2.1-5.4C21.2,11.2,21.2,9.9,20.7,7.8L20.7,7.8z M18.9,17.5
		c-0.2-0.4-0.6-1.3-0.6-2.6c0-1.3,0.5-2.3,0.6-2.6c0.1,0.2,0.6,1.2,0.6,2.5C19.6,16,19.1,17,18.9,17.5L18.9,17.5z M20.6,11.3
		c0,0.8-0.1,1.7-0.2,2.2c0-0.9-0.1-2.1-0.3-3.1c-0.2-1-0.8-2.6-1.2-3.3c-0.4,0.7-0.9,2.1-1.2,3.3c-0.3,1.2-0.3,2.7-0.3,3.1
		c-0.1-0.4-0.3-1.7-0.2-3c0-1.1,0.3-2.2,0.4-2.7c0.5-1.7,1.1-2.8,1.2-3C19,5,19.8,6.3,20.1,7.8C20.5,9.2,20.6,10.5,20.6,11.3"/>
	<path class="st1" d="M19.7,18.5h-3.6v2.4c0,0,0,0,0,0c0.9-0.9,2.3-0.9,3.1,0c0.9,0.9,0.9,2.2,0,3.1c0,0,0,0,0,0c0,0,0,0,0,0
		c-0.9,0.8-2,1.3-3.1,1.3c-1.1,0-2.3-0.4-3.1-1.3c-1.5-1.5-1.7-3.9-0.5-5.6c0.2-0.2,0.3-0.5,0.5-0.7c0.9-0.9,2-1.3,3.1-1.3v-5.9
		c-4.3,0-7.8,3.5-7.8,7.8s3.5,7.8,7.8,7.8c2.3,0,4.3-1,5.7-2.5v-5.4H19.7z"/>
</g>
</svg>
