<svg width="145" height="49" viewBox="0 0 145 49" fill="none" xmlns="http://www.w3.org/2000/svg">
<path d="M24.1919 48.0702C37.5528 48.0702 48.3839 37.3093 48.3839 24.0351C48.3839 10.7609 37.5528 0 24.1919 0C10.8311 0 0 10.7609 0 24.0351C0 37.3093 10.8311 48.0702 24.1919 48.0702Z" fill="url(#paint0_radial_2183_408)"/>
<path d="M24.1919 48.0702C37.5528 48.0702 48.3839 37.3093 48.3839 24.0351C48.3839 10.7609 37.5528 0 24.1919 0C10.8311 0 0 10.7609 0 24.0351C0 37.3093 10.8311 48.0702 24.1919 48.0702Z" fill="url(#paint1_radial_2183_408)"/>
<path fill-rule="evenodd" clip-rule="evenodd" d="M24.1919 12.9123C36.9766 12.9123 47.395 18.2456 48.3132 24.9825C48.3486 24.6667 48.3839 24.3509 48.3839 24.0351C48.3839 16.8421 37.5417 11.0176 24.1919 11.0176C10.8422 11.0176 0 16.8421 0 24.0351C0 24.3509 0.0353183 24.6667 0.070635 24.9825C0.988869 18.2456 11.4426 12.9123 24.1919 12.9123Z" fill="url(#paint2_linear_2183_408)"/>
<path fill-rule="evenodd" clip-rule="evenodd" d="M36.3058 3.22794C36.0233 3.0525 35.7408 2.94724 35.4582 2.80688C40.897 6.94724 40.2966 18.5964 33.9396 29.5788C27.5473 40.5613 17.6939 46.9122 11.3369 44.2806C11.5841 44.456 11.8313 44.6665 12.1139 44.8069C18.3649 48.3858 28.8893 41.9999 35.5642 30.4911C42.239 19.0525 42.5569 6.80689 36.3058 3.22794Z" fill="url(#paint3_linear_2183_408)"/>
<path fill-rule="evenodd" clip-rule="evenodd" d="M14.516 29.8947C8.12372 18.8771 7.52334 7.228 12.9621 3.08765C12.6796 3.19291 12.397 3.33326 12.1145 3.5087C5.82814 7.08765 6.18131 19.3333 12.8562 30.8069C19.531 42.3157 30.0201 48.7017 36.3065 45.1227C36.589 44.9473 36.8362 44.7718 37.0834 44.5964C30.7617 47.1929 20.8731 40.8771 14.516 29.8947Z" fill="url(#paint4_linear_2183_408)"/>
<path fill-rule="evenodd" clip-rule="evenodd" d="M62.5815 24.2456L63.6763 23.4736L67.8437 17.5087H64.6652L60.7451 23.5087L60.1094 23.7894V17.5087H57.3193V31.6842H60.1094V25.6491H60.851L65.089 31.7193H68.5501L63.7823 25.0526L62.5815 24.2456ZM80.0986 19.2631C79.6042 18.6315 78.9685 18.1052 78.1915 17.7543C77.4145 17.4035 76.5316 17.228 75.5074 17.228C73.565 17.228 72.0817 17.8596 71.0222 19.1579C69.9627 20.421 69.4683 22.2456 69.4683 24.6315C69.4683 25.7543 69.5742 26.7368 69.8214 27.6491C70.0687 28.5614 70.4218 29.3333 70.9163 29.9649C71.4107 30.5964 72.0464 31.1228 72.7881 31.4736C73.565 31.8245 74.4479 32 75.4721 32C77.4145 32 78.8978 31.3684 79.9573 30.0701C81.0168 28.807 81.5466 26.9824 81.5466 24.5965C81.5466 23.4736 81.4406 22.4912 81.1934 21.5789C80.9462 20.6666 80.593 19.8947 80.0986 19.2631ZM77.8383 28.3508C77.3086 29.1228 76.5316 29.5087 75.5428 29.5087C75.013 29.5087 74.5186 29.4035 74.1301 29.1579C73.7416 28.9122 73.4237 28.5614 73.1765 28.1403C72.9293 27.7193 72.7527 27.1929 72.6115 26.5964C72.5055 26 72.4349 25.3333 72.4349 24.6315C72.4349 22.9473 72.7174 21.7193 73.2472 20.9122C73.7769 20.1052 74.5539 19.7193 75.5428 19.7193C76.1078 19.7193 76.6023 19.8596 76.9907 20.1052C77.3792 20.3508 77.6971 20.7017 77.9443 21.1579C78.1915 21.614 78.3681 22.1403 78.474 22.7017C78.58 23.2982 78.6506 23.9298 78.6506 24.6315C78.6506 26.3157 78.3681 27.5789 77.8383 28.3508ZM91.8237 23.9649L91.2234 25.614H91.1527L90.4817 24L86.6675 17.5087H84.1247V31.6842H86.7735V24.3157L86.3497 21.5087H86.4556L87.3385 23.7543L90.5523 29.0526H91.4353L94.4725 23.7543L95.3554 21.4736H95.4614L95.1435 24.2807V31.6491H97.9335V17.5087H95.3907L91.8237 23.9649ZM108.634 23.9649L108.034 25.614H107.963L107.292 24L103.478 17.5087H100.935V31.6842H103.584V24.3157L103.16 21.5087H103.266L104.149 23.7543L107.363 29.0526H108.246L111.283 23.7543L112.166 21.4736H112.272L111.954 24.2807V31.6491H114.744V17.5087H112.201L108.634 23.9649ZM127.917 19.2631C127.423 18.6315 126.787 18.1052 126.01 17.7543C125.233 17.4035 124.35 17.228 123.326 17.228C121.384 17.228 119.901 17.8596 118.841 19.1579C117.782 20.421 117.287 22.2456 117.287 24.6315C117.287 25.7543 117.393 26.7368 117.64 27.6491C117.887 28.5614 118.241 29.3333 118.735 29.9649C119.229 30.5964 119.865 31.1228 120.607 31.4736C121.384 31.8245 122.267 32 123.291 32C125.233 32 126.717 31.3684 127.776 30.0701C128.836 28.807 129.365 26.9824 129.365 24.5965C129.365 23.4736 129.259 22.4912 129.012 21.5789C128.8 20.6666 128.412 19.8947 127.917 19.2631ZM125.657 28.3508C125.127 29.1228 124.35 29.5087 123.362 29.5087C122.832 29.5087 122.337 29.4035 121.949 29.1579C121.56 28.9122 121.243 28.5614 120.995 28.1403C120.748 27.7193 120.572 27.1929 120.43 26.5964C120.324 26 120.254 25.3333 120.254 24.6315C120.254 22.9473 120.536 21.7193 121.066 20.9122C121.596 20.1052 122.373 19.7193 123.362 19.7193C123.927 19.7193 124.421 19.8596 124.81 20.1052C125.198 20.3508 125.516 20.7017 125.763 21.1579C126.01 21.614 126.187 22.1403 126.293 22.7017C126.399 23.2982 126.469 23.9298 126.469 24.6315C126.469 26.3157 126.187 27.5789 125.657 28.3508ZM142.221 29.228V17.5087H133.674C133.674 19.4386 133.603 21.1228 133.462 22.5263C133.321 23.9298 133.144 25.1228 132.897 26.035C132.685 26.9824 132.473 27.6842 132.261 28.2105C132.049 28.7368 131.873 29.0526 131.802 29.1929H130.284V34.2105H132.261L132.579 31.6842H141.762L142.079 34.2105H144.057V29.228H142.221ZM139.431 29.228H134.769C135.087 28.5263 135.405 27.4386 135.687 25.8947C136.005 24.3508 136.182 22.3859 136.252 20H139.431V29.228Z" fill="white"/>
<defs>
<radialGradient id="paint0_radial_2183_408" cx="0" cy="0" r="1" gradientUnits="userSpaceOnUse" gradientTransform="translate(27.9128 14.8065) rotate(113.777) scale(33.5155 30.2974)">
<stop stop-color="#707070"/>
<stop offset="0.2909" stop-color="#333333"/>
<stop offset="0.7394" stop-color="#0D0D0D"/>
<stop offset="1" stop-color="#262626"/>
</radialGradient>
<radialGradient id="paint1_radial_2183_408" cx="0" cy="0" r="1" gradientUnits="userSpaceOnUse" gradientTransform="translate(24.206 24.0371) scale(24.1867 24.0299)">
<stop offset="0.8848" stop-color="white" stop-opacity="0"/>
<stop offset="1" stop-color="white" stop-opacity="0.31"/>
</radialGradient>
<linearGradient id="paint2_linear_2183_408" x1="0.0186825" y1="24.9797" x2="48.3919" y2="24.9797" gradientUnits="userSpaceOnUse">
<stop stop-color="#D98E25"/>
<stop offset="0.2061" stop-color="#B57627"/>
<stop offset="0.4" stop-color="#D38927"/>
<stop offset="0.6909" stop-color="#F3AE48"/>
<stop offset="0.897" stop-color="#D78D27"/>
<stop offset="1" stop-color="#C48029"/>
</linearGradient>
<linearGradient id="paint3_linear_2183_408" x1="11.1695" y1="44.3109" x2="35.3989" y2="2.62539" gradientUnits="userSpaceOnUse">
<stop stop-color="#4FB45D"/>
<stop offset="0.2061" stop-color="#0D9946"/>
<stop offset="0.5212" stop-color="#0E9E49"/>
<stop offset="0.7576" stop-color="#5FB867"/>
<stop offset="0.897" stop-color="#4CB45B"/>
<stop offset="1" stop-color="#43AF52"/>
</linearGradient>
<linearGradient id="paint4_linear_2183_408" x1="37.3637" y1="44.2694" x2="12.8497" y2="3.14609" gradientUnits="userSpaceOnUse">
<stop stop-color="#B92C29"/>
<stop offset="0.2061" stop-color="#94181B"/>
<stop offset="0.5212" stop-color="#9E2021"/>
<stop offset="0.7576" stop-color="#B92A28"/>
<stop offset="0.897" stop-color="#B92A28"/>
<stop offset="1" stop-color="#B72728"/>
</linearGradient>
</defs>
</svg>
