<?xml version="1.0" encoding="utf-8"?>
<!-- Generator: Adobe Illustrator 24.2.0, SVG Export Plug-In . SVG Version: 6.00 Build 0)  -->
<svg version="1.1" id="Слой_1" xmlns="http://www.w3.org/2000/svg" xmlns:xlink="http://www.w3.org/1999/xlink" x="0px" y="0px"
	 viewBox="0 0 32 32" style="enable-background:new 0 0 32 32;" xml:space="preserve">
<style type="text/css">
	.st0{fill:#ED1A3A;}
	.st1{fill:#FFFFFF;}
</style>
<circle class="st0" cx="16" cy="16" r="16"/>
<path id="rect2493" class="st1" d="M21.8,8.7c-0.4,0-0.8,0.3-0.9,0.6l-2.4,3.9c-0.2,0.4-0.3,0.8-0.3,1c0,0.2,0,0.5,0.1,0.6l2.6,6.1
	H11c-0.4,0-0.7-0.4-0.7-0.7V9.8c-0.1-1.4-2.1-1.4-2.2,0l0,11.2c0,1.2,0.9,2.2,2.1,2.2h13.6l-3.3-8.5c-0.1-0.3-0.1-0.6,0.1-1l2.2-3.6
	c0-0.1,0.1-0.4,0.1-0.5C22.9,9.1,22.4,8.7,21.8,8.7z M16.4,8.7c-0.5,0-1.1,0.4-1.1,1.1v7.5c0,1.1-1.5,1-1.5,0V9.8
	c0-1.4-2.1-1.4-2.1,0v7.6c0,1.7,1.3,2.9,2.9,2.9c1.6,0,2.9-1.2,2.9-2.9V9.8C17.5,9.1,17,8.7,16.4,8.7z"/>
<path id="path2443" class="st0" d="M81.8-34H55v26.8h26.8V-34z"/>
</svg>
