<svg width="49" height="49" viewBox="0 0 49 49" fill="none" xmlns="http://www.w3.org/2000/svg">
<path d="M24.1919 48.0702C37.5528 48.0702 48.3839 37.3093 48.3839 24.0351C48.3839 10.7609 37.5528 0 24.1919 0C10.8311 0 0 10.7609 0 24.0351C0 37.3093 10.8311 48.0702 24.1919 48.0702Z" fill="url(#paint0_radial_2183_408)"/>
<path d="M24.1919 48.0702C37.5528 48.0702 48.3839 37.3093 48.3839 24.0351C48.3839 10.7609 37.5528 0 24.1919 0C10.8311 0 0 10.7609 0 24.0351C0 37.3093 10.8311 48.0702 24.1919 48.0702Z" fill="url(#paint1_radial_2183_408)"/>
<path fill-rule="evenodd" clip-rule="evenodd" d="M24.1919 12.9123C36.9766 12.9123 47.395 18.2456 48.3132 24.9825C48.3486 24.6667 48.3839 24.3509 48.3839 24.0351C48.3839 16.8421 37.5417 11.0176 24.1919 11.0176C10.8422 11.0176 0 16.8421 0 24.0351C0 24.3509 0.0353183 24.6667 0.070635 24.9825C0.988869 18.2456 11.4426 12.9123 24.1919 12.9123Z" fill="url(#paint2_linear_2183_408)"/>
<path fill-rule="evenodd" clip-rule="evenodd" d="M36.3058 3.22794C36.0233 3.0525 35.7408 2.94724 35.4582 2.80688C40.897 6.94724 40.2966 18.5964 33.9396 29.5788C27.5473 40.5613 17.6939 46.9122 11.3369 44.2806C11.5841 44.456 11.8313 44.6665 12.1139 44.8069C18.3649 48.3858 28.8893 41.9999 35.5642 30.4911C42.239 19.0525 42.5569 6.80689 36.3058 3.22794Z" fill="url(#paint3_linear_2183_408)"/>
<path fill-rule="evenodd" clip-rule="evenodd" d="M14.516 29.8947C8.12372 18.8771 7.52334 7.228 12.9621 3.08765C12.6796 3.19291 12.397 3.33326 12.1145 3.5087C5.82814 7.08765 6.18131 19.3333 12.8562 30.8069C19.531 42.3157 30.0201 48.7017 36.3065 45.1227C36.589 44.9473 36.8362 44.7718 37.0834 44.5964C30.7617 47.1929 20.8731 40.8771 14.516 29.8947Z" fill="url(#paint4_linear_2183_408)"/>
<defs>
<radialGradient id="paint0_radial_2183_408" cx="0" cy="0" r="1" gradientUnits="userSpaceOnUse" gradientTransform="translate(27.9128 14.8065) rotate(113.777) scale(33.5155 30.2974)">
<stop stop-color="#707070"/>
<stop offset="0.2909" stop-color="#333333"/>
<stop offset="0.7394" stop-color="#0D0D0D"/>
<stop offset="1" stop-color="#262626"/>
</radialGradient>
<radialGradient id="paint1_radial_2183_408" cx="0" cy="0" r="1" gradientUnits="userSpaceOnUse" gradientTransform="translate(24.206 24.0371) scale(24.1867 24.0299)">
<stop offset="0.8848" stop-color="white" stop-opacity="0"/>
<stop offset="1" stop-color="white" stop-opacity="0.31"/>
</radialGradient>
<linearGradient id="paint2_linear_2183_408" x1="0.0186825" y1="24.9797" x2="48.3919" y2="24.9797" gradientUnits="userSpaceOnUse">
<stop stop-color="#D98E25"/>
<stop offset="0.2061" stop-color="#B57627"/>
<stop offset="0.4" stop-color="#D38927"/>
<stop offset="0.6909" stop-color="#F3AE48"/>
<stop offset="0.897" stop-color="#D78D27"/>
<stop offset="1" stop-color="#C48029"/>
</linearGradient>
<linearGradient id="paint3_linear_2183_408" x1="11.1695" y1="44.3109" x2="35.3989" y2="2.62539" gradientUnits="userSpaceOnUse">
<stop stop-color="#4FB45D"/>
<stop offset="0.2061" stop-color="#0D9946"/>
<stop offset="0.5212" stop-color="#0E9E49"/>
<stop offset="0.7576" stop-color="#5FB867"/>
<stop offset="0.897" stop-color="#4CB45B"/>
<stop offset="1" stop-color="#43AF52"/>
</linearGradient>
<linearGradient id="paint4_linear_2183_408" x1="37.3637" y1="44.2694" x2="12.8497" y2="3.14609" gradientUnits="userSpaceOnUse">
<stop stop-color="#B92C29"/>
<stop offset="0.2061" stop-color="#94181B"/>
<stop offset="0.5212" stop-color="#9E2021"/>
<stop offset="0.7576" stop-color="#B92A28"/>
<stop offset="0.897" stop-color="#B92A28"/>
<stop offset="1" stop-color="#B72728"/>
</linearGradient>
</defs>
</svg>
