<?xml version="1.0" encoding="utf-8"?>
<!-- Generator: Adobe Illustrator 24.2.0, SVG Export Plug-In . SVG Version: 6.00 Build 0)  -->
<svg version="1.1" id="Слой_1" xmlns="http://www.w3.org/2000/svg" xmlns:xlink="http://www.w3.org/1999/xlink" x="0px" y="0px"
	 viewBox="0 0 32 32" style="enable-background:new 0 0 32 32;" xml:space="preserve">
<style type="text/css">
	.st0{fill:#F3D200;}
	.st1{fill:#ED1A3A;}
	.st2{fill-rule:evenodd;clip-rule:evenodd;fill:#241C24;}
	.st3{fill-rule:evenodd;clip-rule:evenodd;fill:#FFFFFF;}
</style>
<circle class="st0" cx="16" cy="16" r="16"/>
<path id="path2443" class="st1" d="M81.8-34H55v26.8h26.8V-34z"/>
<polygon class="st2" points="8.1,11.4 10,11.4 10,18.1 8.1,16.3 "/>
<polygon class="st2" points="10.4,9.2 12.3,9.2 12.3,20.2 10.4,18.4 "/>
<polygon class="st2" points="12.7,7 14.6,7 14.6,17.5 12.7,17.5 "/>
<polygon class="st2" points="15,4.8 17,4.8 17,15.3 15,15.3 "/>
<polygon class="st2" points="17.3,6.8 19.2,6.8 19.2,17.5 17.3,17.5 "/>
<polygon class="st2" points="19.7,9.1 21.6,9.1 21.6,18.4 19.7,20.2 "/>
<polygon class="st2" points="21.9,11.3 23.9,11.3 23.9,16.2 21.9,18.1 "/>
<polygon class="st3" points="12.7,17.7 14.6,17.7 14.6,27.4 12.7,27.4 "/>
<polygon class="st3" points="15,15.6 16.9,15.6 16.9,27.4 15,27.4 "/>
<polygon class="st3" points="17.3,17.7 19.2,17.7 19.2,27.4 17.3,27.4 "/>
</svg>
